HIERARCHY
ROOT Hips
{
  OFFSET 17.889 28.144 -236.413
  CHANNELS 6 Xposition Yposition Zposition Zrotation Xrotation Yrotation
  JOINT LeftUpLeg
  {
    OFFSET 7.696 -6.863 3.091
    CHANNELS 6 Xposition Yposition Zposition Zrotation Xrotation Yrotation
    JOINT LeftLeg
    {
      OFFSET -0.000 -50.206 0.000
      CHANNELS 6 Xposition Yposition Zposition Zrotation Xrotation Yrotation
      JOINT LeftFoot
      {
        OFFSET -0.000 -39.921 -0.000
        CHANNELS 6 Xposition Yposition Zposition Zrotation Xrotation Yrotation
        End Site
        {
          OFFSET 0.000 -8.711 5.029
        }
      }
    }
  }
  JOINT RightUpLeg
  {
    OFFSET -7.510 -7.236 2.837
    CHANNELS 6 Xposition Yposition Zposition Zrotation Xrotation Yrotation
    JOINT RightLeg
    {
      OFFSET 0.000 -50.429 0.000
      CHANNELS 6 Xposition Yposition Zposition Zrotation Xrotation Yrotation
      JOINT RightFoot
      {
        OFFSET -0.000 -41.305 -0.000
        CHANNELS 6 Xposition Yposition Zposition Zrotation Xrotation Yrotation
        End Site
        {
          OFFSET 0.000 -7.831 4.521
        }
      }
    }
  }
  JOINT Spine
  {
    OFFSET 0.000 5.543 -5.543
    CHANNELS 6 Xposition Yposition Zposition Zrotation Xrotation Yrotation
    JOINT LeftShoulder
    {
      OFFSET -0.000 34.725 0.000
      CHANNELS 6 Xposition Yposition Zposition Zrotation Xrotation Yrotation
      JOINT LeftArm
      {
        OFFSET 19.746 0.000 -0.000
        CHANNELS 6 Xposition Yposition Zposition Zrotation Xrotation Yrotation
        JOINT LeftForeArm
        {
          OFFSET 23.902 0.000 0.000
          CHANNELS 6 Xposition Yposition Zposition Zrotation Xrotation Yrotation
          JOINT LeftHand
          {
            OFFSET 25.936 -0.000 -0.000
            CHANNELS 6 Xposition Yposition Zposition Zrotation Xrotation Yrotation
            JOINT LeftHandThumb1
            {
            OFFSET 4.970 -0.620 3.390
            CHANNELS 6 Xposition Yposition Zposition Zrotation Xrotation Yrotation
              JOINT LeftHandThumb2
              {
              OFFSET 2.150 -0.000 0.000
              CHANNELS 6 Xposition Yposition Zposition Zrotation Xrotation Yrotation
                JOINT LeftHandThumb3
                {
                OFFSET 2.200 -0.000 0.000
                CHANNELS 6 Xposition Yposition Zposition Zrotation Xrotation Yrotation
                  JOINT LeftHandThumb4
                  {
                  OFFSET 1.700 -0.000 0.000
                  CHANNELS 6 Xposition Yposition Zposition Zrotation Xrotation Yrotation
                  }
                }
              }
            }
            JOINT LeftHandIndex1
            {
            OFFSET 8.730 0.680 2.070
            CHANNELS 6 Xposition Yposition Zposition Zrotation Xrotation Yrotation
              JOINT LeftHandIndex2
              {
              OFFSET 2.670 -0.000 0.000
              CHANNELS 6 Xposition Yposition Zposition Zrotation Xrotation Yrotation
                JOINT LeftHandIndex3
                {
                OFFSET 2.130 -0.000 0.000
                CHANNELS 6 Xposition Yposition Zposition Zrotation Xrotation Yrotation
                  JOINT LeftHandIndex4
                  {
                  OFFSET 1.800 -0.000 0.000
                  CHANNELS 6 Xposition Yposition Zposition Zrotation Xrotation Yrotation
                  }
                }
              }
            }
            JOINT LeftHandMiddle1
            {
            OFFSET 9.220 0.670 0.550
            CHANNELS 6 Xposition Yposition Zposition Zrotation Xrotation Yrotation
              JOINT LeftHandMiddle2
              {
              OFFSET 2.660 -0.000 0.000
              CHANNELS 6 Xposition Yposition Zposition Zrotation Xrotation Yrotation
                JOINT LeftHandMiddle3
                {
                OFFSET 2.280 -0.000 0.000
                CHANNELS 6 Xposition Yposition Zposition Zrotation Xrotation Yrotation
                  JOINT LeftHandMiddle4
                  {
                  OFFSET 1.500 -0.000 0.000
                  CHANNELS 6 Xposition Yposition Zposition Zrotation Xrotation Yrotation
                  }
                }
              }
            }
            JOINT LeftHandRing1
            {
            OFFSET 9.250 0.670 -1.130
            CHANNELS 6 Xposition Yposition Zposition Zrotation Xrotation Yrotation
              JOINT LeftHandRing2
              {
              OFFSET 2.470 -0.000 0.000
              CHANNELS 6 Xposition Yposition Zposition Zrotation Xrotation Yrotation
                JOINT LeftHandRing3
                {
                OFFSET 2.210 -0.000 0.000
                CHANNELS 6 Xposition Yposition Zposition Zrotation Xrotation Yrotation
                  JOINT LeftHandRing4
                  {
                  OFFSET 1.800 -0.000 0.000
                  CHANNELS 6 Xposition Yposition Zposition Zrotation Xrotation Yrotation
                  }
                }
              }
            }
            JOINT LeftHandPinky1
            {
            OFFSET 9.350 0.660 -2.720
            CHANNELS 6 Xposition Yposition Zposition Zrotation Xrotation Yrotation
              JOINT LeftHandPinky2
              {
              OFFSET 1.630 -0.000 0.000
              CHANNELS 6 Xposition Yposition Zposition Zrotation Xrotation Yrotation
                JOINT LeftHandPinky3
                {
                OFFSET 1.710 -0.000 0.000
                CHANNELS 6 Xposition Yposition Zposition Zrotation Xrotation Yrotation
                  JOINT LeftHandPinky4
                  {
                  OFFSET 1.800 -0.000 0.000
                  CHANNELS 6 Xposition Yposition Zposition Zrotation Xrotation Yrotation
                  }
                }
              }
            }
          }
        }
      }
    }
    JOINT RightShoulder
    {
      OFFSET -0.000 34.725 0.000
      CHANNELS 6 Xposition Yposition Zposition Zrotation Xrotation Yrotation
      JOINT RightArm
      {
        OFFSET -19.233 0.000 -0.000
        CHANNELS 6 Xposition Yposition Zposition Zrotation Xrotation Yrotation
        JOINT RightForeArm
        {
          OFFSET -22.083 0.000 0.000
          CHANNELS 6 Xposition Yposition Zposition Zrotation Xrotation Yrotation
          JOINT RightHand
          {
            OFFSET -24.479 0.000 -0.000
            CHANNELS 6 Xposition Yposition Zposition Zrotation Xrotation Yrotation
            JOINT RightHandThumb1
            {
            OFFSET -4.970 -0.620 3.390
            CHANNELS 6 Xposition Yposition Zposition Zrotation Xrotation Yrotation
              JOINT RightHandThumb2
              {
              OFFSET -2.150 0.000 0.000
              CHANNELS 6 Xposition Yposition Zposition Zrotation Xrotation Yrotation
                JOINT RightHandThumb3
                {
                OFFSET -2.200 0.000 0.000
                CHANNELS 6 Xposition Yposition Zposition Zrotation Xrotation Yrotation
                  JOINT RightHandThumb4
                  {
                  OFFSET -1.700 0.000 0.000
                  CHANNELS 6 Xposition Yposition Zposition Zrotation Xrotation Yrotation
                  }
                }
              }
            }
            JOINT RightHandIndex1
            {
            OFFSET -8.730 0.680 2.070
            CHANNELS 6 Xposition Yposition Zposition Zrotation Xrotation Yrotation
              JOINT RightHandIndex2
              {
              OFFSET -2.670 0.000 0.000
              CHANNELS 6 Xposition Yposition Zposition Zrotation Xrotation Yrotation
                JOINT RightHandIndex3
                {
                OFFSET -2.130 0.000 0.000
                CHANNELS 6 Xposition Yposition Zposition Zrotation Xrotation Yrotation
                  JOINT RightHandIndex4
                  {
                  OFFSET -1.800 0.000 0.000
                  CHANNELS 6 Xposition Yposition Zposition Zrotation Xrotation Yrotation
                  }
                }
              }
            }
            JOINT RightHandMiddle1
            {
            OFFSET -9.220 0.670 0.550
            CHANNELS 6 Xposition Yposition Zposition Zrotation Xrotation Yrotation
              JOINT RightHandMiddle2
              {
              OFFSET -2.660 0.000 0.000
              CHANNELS 6 Xposition Yposition Zposition Zrotation Xrotation Yrotation
                JOINT RightHandMiddle3
                {
                OFFSET -2.280 0.000 0.000
                CHANNELS 6 Xposition Yposition Zposition Zrotation Xrotation Yrotation
                  JOINT RightHandMiddle4
                  {
                  OFFSET -1.500 0.000 0.000
                  CHANNELS 6 Xposition Yposition Zposition Zrotation Xrotation Yrotation
                  }
                }
              }
            }
            JOINT RightHandRing1
            {
            OFFSET -9.250 0.670 -1.130
            CHANNELS 6 Xposition Yposition Zposition Zrotation Xrotation Yrotation
              JOINT RightHandRing2
              {
              OFFSET -2.470 0.000 0.000
              CHANNELS 6 Xposition Yposition Zposition Zrotation Xrotation Yrotation
                JOINT RightHandRing3
                {
                OFFSET -2.210 0.000 0.000
                CHANNELS 6 Xposition Yposition Zposition Zrotation Xrotation Yrotation
                  JOINT RightHandRing4
                  {
                  OFFSET -1.800 0.000 0.000
                  CHANNELS 6 Xposition Yposition Zposition Zrotation Xrotation Yrotation
                  }
                }
              }
            }
            JOINT RightHandPinky1
            {
            OFFSET -9.350 0.660 -2.720
            CHANNELS 6 Xposition Yposition Zposition Zrotation Xrotation Yrotation
              JOINT RightHandPinky2
              {
              OFFSET -1.630 0.000 0.000
              CHANNELS 6 Xposition Yposition Zposition Zrotation Xrotation Yrotation
                JOINT RightHandPinky3
                {
                OFFSET -1.710 0.000 0.000
                CHANNELS 6 Xposition Yposition Zposition Zrotation Xrotation Yrotation
                  JOINT RightHandPinky4
                  {
                  OFFSET -1.800 0.000 0.000
                  CHANNELS 6 Xposition Yposition Zposition Zrotation Xrotation Yrotation
                  }
                }
              }
            }
          }
        }
      }
    }
    JOINT Neck
    {
      OFFSET -0.000 34.725 0.000
      CHANNELS 6 Xposition Yposition Zposition Zrotation Xrotation Yrotation
      JOINT Head
      {
        OFFSET -0.000 19.383 -0.000
        CHANNELS 6 Xposition Yposition Zposition Zrotation Xrotation Yrotation
        End Site
        {
          OFFSET -0.000 0.078 -0.000
        }
      }
    }
  }
}
MOTION
Frames:	5
Frame Time:	0.0333333
16.3144 28.8415 -231.059 0.173686 7.69449 -2.06214 7.6015 -7.42353 2.31359 1.99423 -8.57773 -3.61067 -3.44589e-06 -51.5261 -2.38419e-05 -7.49347 10.4311 1.36424 -2.23517e-06 -38.9821 7.15256e-05 7.77854 -14.6255 6.23071 -7.46833 -7.72314 1.31788 -0.957736 -13.2147 -3.84942 -1.49012e-06 -51.9442 0 0.266663 18.878 -4.51155e-07 0 -39.2857 -4.76837e-05 -5.69914 -19.2044 -4.96665 1.49012e-06 5.91485 -5.91488 0.501243 -4.68645 0.0151749 -7.45058e-07 34.7249 0 -27.4993 1.28066e-05 0.310849 19.4208 0 -7.15256e-05 -40.6891 43.9745 -10.339 24.7238 2.38419e-05 1.19209e-05 5.44773e-05 6.83019e-06 -77.5001 26.7483 -2.38419e-05 4.09782e-06 -5.37313 0.0429571 -3.94931 0.0062 0.0497 0.0339 0 0 0 0 0.0215 0 0 0 0 0 0.022 0 0 0 0 0 0.017 0 0 0 0 -0.0068 0.0873 0.0207 0 0 0 0 0.0267 0 0 0 0 0 0.0213 0 0 0 0 0 0.018 0 0 0 0 -0.0067 0.0922 0.0055 0 0 0 0 0.0266 0 0 0 0 0 0.0228 0 0 0 0 0 0.015 0 0 0 0 -0.0067 0.0925 -0.0113 0 0 0 0 0.0247 0 0 0 0 0 0.0221 0 0 0 0 0 0.018 0 0 0 0 -0.0066 0.0935 -0.0272 0 0 0 0 0.0163 0 0 0 0 0 0.0171 0 0 0 0 0 0.018 0 0 0 0 -7.45058e-07 34.7249 0 26.579 -2.4546e-06 -0.312345 -19.3283 -1.49012e-05 2.38419e-05 43.8098 27.7488 -5.34517 -21.4026 -1.19209e-05 7.15256e-05 -1.34704e-05 1.36604e-05 65.4548 -23.4638 1.19209e-05 0 9.65781 0.00121264 9.58111 -0.0062 0.0497 0.0339 0 0 0 0 0.0215 0 0 0 0 0 0.022 0 0 0 0 0 0.017 0 0 0 0 0.0068 0.0873 0.0207 0 0 0 0 0.0267 0 0 0 0 0 0.0213 0 0 0 0 0 0.018 0 0 0 0 0.0067 0.0922 0.0055 0 0 0 0 0.0266 0 0 0 0 0 0.0228 0 0 0 0 0 0.015 0 0 0 0 0.0067 0.0925 -0.0113 0 0 0 0 0.0247 0 0 0 0 0 0.0221 0 0 0 0 0 0.018 0 0 0 0 0.0066 0.0935 -0.0272 0 0 0 0 0.0163 0 0 0 0 0 0.0171 0 0 0 0 0 0.018 0 0 0 0 -7.45058e-07 34.7249 0 -0.128939 10.3273 0.0231158 2.23517e-06 19.0169 0 1.00318e-05 -1.19528e-05 2.13443e-07 
16.9268 28.9284 -232.321 0.431497 8.89363 -2.01907 7.58975 -7.41679 2.48797 1.42412 -9.63854 -4.3859 -1.86265e-06 -51.7299 -2.38419e-05 -7.66004 9.17043 1.22793 -7.45058e-07 -38.8724 2.38419e-05 8.40602 -14.7977 6.77644 -7.47827 -7.68633 1.29769 -1.37357 -15.5213 -4.42174 1.49012e-06 -52.162 2.38419e-05 -0.499555 19.7111 9.06914e-07 -1.49012e-06 -39.0384 -4.76837e-05 -4.98559 -18.8796 -4.35661 3.72529e-06 5.86485 -5.86491 0.41123 -5.46994 -0.00443334 0 34.7249 -2.38419e-05 -27.3643 1.06722e-05 0.529707 19.4033 0 2.38419e-05 -41.8339 43.8042 -8.84264 24.4633 -3.57628e-05 0 4.00139e-05 0 -77.6801 27.1381 1.19209e-05 5.58794e-06 -6.35585 0.0424536 -4.6941 0.0062 0.0497 0.0339 0 0 0 0 0.0215 0 0 0 0 0 0.022 0 0 0 0 0 0.017 0 0 0 0 -0.0068 0.0873 0.0207 0 0 0 0 0.0267 0 0 0 0 0 0.0213 0 0 0 0 0 0.018 0 0 0 0 -0.0067 0.0922 0.0055 0 0 0 0 0.0266 0 0 0 0 0 0.0228 0 0 0 0 0 0.015 0 0 0 0 -0.0067 0.0925 -0.0113 0 0 0 0 0.0247 0 0 0 0 0 0.0221 0 0 0 0 0 0.018 0 0 0 0 -0.0066 0.0935 -0.0272 0 0 0 0 0.0163 0 0 0 0 0 0.0171 0 0 0 0 0 0.018 0 0 0 0 0 34.7249 -2.38419e-05 26.6559 -1.70755e-06 -0.533649 -19.2603 -1.78814e-05 4.76837e-05 43.3857 27.3863 -4.98748 -21.4782 5.96046e-06 0 1.87716e-06 8.53774e-06 65.1997 -23.0798 -1.78814e-05 2.38419e-05 10.0024 0.00118025 9.04504 -0.0062 0.0497 0.0339 0 0 0 0 0.0215 0 0 0 0 0 0.022 0 0 0 0 0 0.017 0 0 0 0 0.0068 0.0873 0.0207 0 0 0 0 0.0267 0 0 0 0 0 0.0213 0 0 0 0 0 0.018 0 0 0 0 0.0067 0.0922 0.0055 0 0 0 0 0.0266 0 0 0 0 0 0.0228 0 0 0 0 0 0.015 0 0 0 0 0.0067 0.0925 -0.0113 0 0 0 0 0.0247 0 0 0 0 0 0.0221 0 0 0 0 0 0.018 0 0 0 0 0.0066 0.0935 -0.0272 0 0 0 0 0.0163 0 0 0 0 0 0.0171 0 0 0 0 0 0.018 0 0 0 0 0 34.7249 -2.38419e-05 -0.415832 9.63681 0.0696136 -2.23517e-06 18.9946 2.38419e-05 9.9518e-06 -1.02453e-05 2.13443e-07 
16.9268 28.9284 -232.321 0.431497 8.89363 -2.01907 7.58975 -7.41679 2.48797 1.42412 -9.63854 -4.3859 -1.86265e-06 -51.7299 -2.38419e-05 -7.66004 9.17043 1.22793 -7.45058e-07 -38.8724 2.38419e-05 8.40602 -14.7977 6.77644 -7.47827 -7.68633 1.29769 -1.37357 -15.5213 -4.42174 1.49012e-06 -52.162 2.38419e-05 -0.499555 19.7111 9.06914e-07 -1.49012e-06 -39.0384 -4.76837e-05 -4.98559 -18.8796 -4.35661 3.72529e-06 5.86485 -5.86491 0.41123 -5.46994 -0.00443334 0 34.7249 -2.38419e-05 -27.3643 1.06722e-05 0.529707 19.4033 0 2.38419e-05 -41.8339 43.8042 -8.84264 24.4633 -3.57628e-05 0 4.00139e-05 0 -77.6801 27.1381 1.19209e-05 5.58794e-06 -6.35585 0.0424536 -4.6941 0.0062 0.0497 0.0339 0 0 0 0 0.0215 0 0 0 0 0 0.022 0 0 0 0 0 0.017 0 0 0 0 -0.0068 0.0873 0.0207 0 0 0 0 0.0267 0 0 0 0 0 0.0213 0 0 0 0 0 0.018 0 0 0 0 -0.0067 0.0922 0.0055 0 0 0 0 0.0266 0 0 0 0 0 0.0228 0 0 0 0 0 0.015 0 0 0 0 -0.0067 0.0925 -0.0113 0 0 0 0 0.0247 0 0 0 0 0 0.0221 0 0 0 0 0 0.018 0 0 0 0 -0.0066 0.0935 -0.0272 0 0 0 0 0.0163 0 0 0 0 0 0.0171 0 0 0 0 0 0.018 0 0 0 0 0 34.7249 -2.38419e-05 26.6559 -1.70755e-06 -0.533649 -19.2603 -1.78814e-05 4.76837e-05 43.3857 27.3863 -4.98748 -21.4782 5.96046e-06 0 1.87716e-06 8.53774e-06 65.1997 -23.0798 -1.78814e-05 2.38419e-05 10.0024 0.00118025 9.04504 -0.0062 0.0497 0.0339 0 0 0 0 0.0215 0 0 0 0 0 0.022 0 0 0 0 0 0.017 0 0 0 0 0.0068 0.0873 0.0207 0 0 0 0 0.0267 0 0 0 0 0 0.0213 0 0 0 0 0 0.018 0 0 0 0 0.0067 0.0922 0.0055 0 0 0 0 0.0266 0 0 0 0 0 0.0228 0 0 0 0 0 0.015 0 0 0 0 0.0067 0.0925 -0.0113 0 0 0 0 0.0247 0 0 0 0 0 0.0221 0 0 0 0 0 0.018 0 0 0 0 0.0066 0.0935 -0.0272 0 0 0 0 0.0163 0 0 0 0 0 0.0171 0 0 0 0 0 0.018 0 0 0 0 0 34.7249 -2.38419e-05 -0.415832 9.63681 0.0696136 -2.23517e-06 18.9946 2.38419e-05 9.9518e-06 -1.02453e-05 2.13443e-07 
17.5106 28.9851 -233.688 0.681819 10.3859 -2.48239 7.62197 -7.40343 2.57399 1.003 -11.4396 -4.17159 -3.72529e-06 -51.7921 -2.38419e-05 -7.79018 8.40151 1.14513 -7.45058e-06 -38.8519 0 9.02533 -14.6674 7.27156 -7.51857 -7.63752 1.44091 -1.60482 -18.1495 -3.96333 -5.96046e-06 -52.2631 -9.53674e-05 -1.16916 21.8176 -4.59823e-07 -2.98023e-06 -39.1932 2.38419e-05 -3.98469 -18.9613 -3.53133 7.45058e-07 5.79636 -5.79636 0.344944 -6.59043 -0.0356028 -5.21541e-06 34.7248 7.15256e-05 -27.446 1.23797e-05 0.659523 19.3392 5.96046e-06 -2.38419e-05 -42.2606 43.4895 -8.18364 24.5035 3.57628e-05 -1.19209e-05 3.86338e-05 6.83019e-06 -77.4796 27.3504 -2.38419e-05 6.70552e-06 -6.55412 0.0437031 -5.73424 0.0062 0.0497 0.0339 0 0 0 0 0.0215 0 0 0 0 0 0.022 0 0 0 0 0 0.017 0 0 0 0 -0.0068 0.0873 0.0207 0 0 0 0 0.0267 0 0 0 0 0 0.0213 0 0 0 0 0 0.018 0 0 0 0 -0.0067 0.0922 0.0055 0 0 0 0 0.0266 0 0 0 0 0 0.0228 0 0 0 0 0 0.015 0 0 0 0 -0.0067 0.0925 -0.0113 0 0 0 0 0.0247 0 0 0 0 0 0.0221 0 0 0 0 0 0.018 0 0 0 0 -0.0066 0.0935 -0.0272 0 0 0 0 0.0163 0 0 0 0 0 0.0171 0 0 0 0 0 0.018 0 0 0 0 -5.21541e-06 34.7248 7.15256e-05 26.6693 -2.56132e-06 -0.661753 -19.2744 -2.98023e-06 -2.38419e-05 43.1872 27.5456 -4.55227 -21.5892 5.96046e-06 -2.38419e-05 -5.62251e-06 1.19528e-05 65.4587 -23.3877 -2.38419e-05 -1.78814e-05 10.2313 -0.000478258 8.55662 -0.0062 0.0497 0.0339 0 0 0 0 0.0215 0 0 0 0 0 0.022 0 0 0 0 0 0.017 0 0 0 0 0.0068 0.0873 0.0207 0 0 0 0 0.0267 0 0 0 0 0 0.0213 0 0 0 0 0 0.018 0 0 0 0 0.0067 0.0922 0.0055 0 0 0 0 0.0266 0 0 0 0 0 0.0228 0 0 0 0 0 0.015 0 0 0 0 0.0067 0.0925 -0.0113 0 0 0 0 0.0247 0 0 0 0 0 0.0221 0 0 0 0 0 0.018 0 0 0 0 0.0066 0.0935 -0.0272 0 0 0 0 0.0163 0 0 0 0 0 0.0171 0 0 0 0 0 0.018 0 0 0 0 -5.21541e-06 34.7248 7.15256e-05 -0.278394 9.10076 0.0440334 -2.98023e-06 18.9389 -9.53674e-05 9.92512e-06 -1.10991e-05 2.13443e-07 
17.8762 29.0413 -234.641 0.903354 11.4797 -2.99511 7.65137 -7.39163 2.6737 0.75142 -12.7809 -4.17107 4.84288e-06 -51.8105 4.76837e-05 -7.92724 7.87733 1.09331 -1.11759e-06 -38.8588 -7.15256e-05 9.46796 -14.4871 7.60715 -7.55198 -7.61034 1.54107 -1.71516 -19.9678 -3.66163 1.49012e-06 -52.2792 0 -1.73113 24.4879 3.28357e-06 4.47035e-06 -39.5046 0 -3.35691 -20.147 -3.03391 1.49012e-06 5.74505 -5.74505 0.321618 -7.48945 -0.125982 -5.58794e-06 34.7248 -2.38419e-05 -27.6117 1.06722e-05 0.798444 19.3321 -2.08616e-05 2.38419e-05 -42.1848 43.2085 -8.01198 24.5131 2.38419e-05 0 1.91448e-07 -1.70755e-06 -77.2055 27.2871 -3.57628e-05 2.98023e-06 -6.66491 0.0416977 -6.29173 0.0062 0.0497 0.0339 0 0 0 0 0.0215 0 0 0 0 0 0.022 0 0 0 0 0 0.017 0 0 0 0 -0.0068 0.0873 0.0207 0 0 0 0 0.0267 0 0 0 0 0 0.0213 0 0 0 0 0 0.018 0 0 0 0 -0.0067 0.0922 0.0055 0 0 0 0 0.0266 0 0 0 0 0 0.0228 0 0 0 0 0 0.015 0 0 0 0 -0.0067 0.0925 -0.0113 0 0 0 0 0.0247 0 0 0 0 0 0.0221 0 0 0 0 0 0.018 0 0 0 0 -0.0066 0.0935 -0.0272 0 0 0 0 0.0163 0 0 0 0 0 0.0171 0 0 0 0 0 0.018 0 0 0 0 -5.58794e-06 34.7248 -2.38419e-05 26.5829 -3.4151e-06 -0.799718 -19.3015 -1.78814e-05 2.38419e-05 43.1993 27.5187 -4.07329 -21.6952 1.19209e-05 7.15256e-05 1.6238e-05 -1.70755e-06 65.712 -23.712 0 -5.96046e-06 10.5628 -0.00641661 8.03955 -0.0062 0.0497 0.0339 0 0 0 0 0.0215 0 0 0 0 0 0.022 0 0 0 0 0 0.017 0 0 0 0 0.0068 0.0873 0.0207 0 0 0 0 0.0267 0 0 0 0 0 0.0213 0 0 0 0 0 0.018 0 0 0 0 0.0067 0.0922 0.0055 0 0 0 0 0.0266 0 0 0 0 0 0.0228 0 0 0 0 0 0.015 0 0 0 0 0.0067 0.0925 -0.0113 0 0 0 0 0.0247 0 0 0 0 0 0.0221 0 0 0 0 0 0.018 0 0 0 0 0.0066 0.0935 -0.0272 0 0 0 0 0.0163 0 0 0 0 0 0.0171 0 0 0 0 0 0.018 0 0 0 0 -5.58794e-06 34.7248 -2.38419e-05 -0.248868 8.93991 0.0386745 -1.86265e-06 18.8817 2.38419e-05 1.00852e-05 -1.28066e-05 -4.26887e-07 
